<?xml version="1.0" encoding="UTF-8"?>
<svg version="1.1" xmlns="http://www.w3.org/2000/svg" width="474" height="474">
<path d="M0 0 C156.42 0 312.84 0 474 0 C474 156.42 474 312.84 474 474 C317.58 474 161.16 474 0 474 C0 317.58 0 161.16 0 0 Z " fill="#FDFDFD" transform="translate(0,0)"/>
<path d="M0 0 C0.94404391 -0.00453111 1.88808781 -0.00906223 2.86073911 -0.01373065 C6.02027697 -0.02637851 9.17964253 -0.02475399 12.33920288 -0.02310181 C14.60630515 -0.02908692 16.87340538 -0.03589243 19.14050293 -0.04345703 C25.29779268 -0.06112878 31.45502684 -0.06581299 37.6123395 -0.0670886 C41.46150954 -0.06851043 45.31066546 -0.07278069 49.159832 -0.07808304 C61.90191413 -0.09563419 74.64394997 -0.1049228 87.38604124 -0.10342209 C88.41569805 -0.10330222 88.41569805 -0.10330222 89.46615601 -0.10317993 C90.49707884 -0.10305729 90.49707884 -0.10305729 91.54882841 -0.10293217 C102.67575701 -0.10212007 113.80254998 -0.12123944 124.92943938 -0.14945666 C136.36994992 -0.17823881 147.81036697 -0.19162835 159.2509197 -0.19026911 C165.66760222 -0.18975996 172.08413133 -0.19541745 178.50078201 -0.21662521 C184.54026362 -0.23604088 190.57944606 -0.23610902 196.61893845 -0.22159195 C198.82956125 -0.2195067 201.04020293 -0.22418767 203.25079346 -0.23631287 C218.60953924 -0.31506613 232.68573868 0.1406095 244.55160522 11.26742554 C252.94836274 21.88219447 255.00353158 31.18674586 254.93978882 44.41928101 C254.94385977 45.84264528 254.94920459 47.26600639 254.95571899 48.68936157 C254.9693387 52.53662357 254.96411555 56.38364289 254.95458174 60.23090887 C254.94695434 64.27011585 254.95403955 68.30930289 254.95874023 72.34851074 C254.9641901 79.13222966 254.95702772 85.91585044 254.94271851 92.69955444 C254.92640661 100.52261132 254.93167292 108.34543342 254.94819772 116.16848457 C254.96185032 122.90337397 254.96371348 129.63819304 254.95588171 136.37309182 C254.95122418 140.38744773 254.95052686 144.40169365 254.96049118 148.41604233 C254.96921325 152.19350055 254.96304433 155.9706589 254.94580841 159.74808502 C254.94000524 161.78096616 254.94881513 163.81387292 254.95819092 165.84674072 C254.87797114 177.51680912 252.58840492 188.97782005 244.55160522 197.89242554 C236.70856844 205.26319344 225.98597806 209.39414453 215.30941772 209.30648804 C214.41625854 209.30084839 213.52309937 209.29520874 212.60287476 209.28939819 C211.92595581 209.28214722 211.24903687 209.27489624 210.55160522 209.26742554 C210.55826706 209.85989075 210.56492889 210.45235596 210.5717926 211.06277466 C210.6381429 217.22696508 210.68340455 223.39105413 210.71640015 229.55551147 C210.73149017 231.85633464 210.7519645 234.15712902 210.77792358 236.45785522 C210.8142967 239.76424256 210.83132955 243.0702497 210.84457397 246.37680054 C210.86779976 247.92074493 210.86779976 247.92074493 210.89149475 249.49588013 C210.89183464 250.93692108 210.89183464 250.93692108 210.8921814 252.40707397 C210.90217415 253.67282257 210.90217415 253.67282257 210.91236877 254.96414185 C210.44885218 257.92344919 209.76705637 259.24019245 207.55160522 261.26742554 C204.69415283 261.66830826 204.69415283 261.66830826 201.55160522 261.26742554 C199.4157362 259.31685638 199.4157362 259.31685638 197.41712952 256.54953003 C196.64152617 255.51988129 195.86592281 254.49023254 195.06681633 253.42938232 C194.6546467 252.87342754 194.24247707 252.31747276 193.81781745 251.74467087 C179.0164827 232.09577033 160.80773531 209.69020858 135.32612801 205.55067444 C126.75826006 204.41682065 118.20614059 204.10356636 109.57113647 204.11117554 C108.26149752 204.11184587 108.26149752 204.11184587 106.92540121 204.11252975 C96.13313004 204.15956343 85.37912616 204.64831945 74.60857093 205.30282688 C64.42351543 205.91188218 54.23291507 206.17431002 44.0340271 206.43539429 C40.43521058 206.52926743 36.83647386 206.62557426 33.23780823 206.72506714 C32.36662202 206.74912014 31.49543581 206.77317315 30.59785002 206.79795504 C24.65544942 206.9714175 18.72143355 207.23433978 12.7844696 207.53927612 C10.43933839 207.65207691 8.09415001 207.76362154 5.74895096 207.87500191 C3.60172433 207.98434562 1.45683673 208.11713157 -0.6889801 208.25093079 C-11.3149242 208.754595 -18.2219006 206.61294587 -26.53042603 200.02914429 C-33.04234788 194.04772523 -37.92509816 187.09878054 -38.73051262 178.12364578 C-38.84573291 174.23854946 -38.86589899 170.35917675 -38.85244751 166.47299194 C-38.85815728 164.98066193 -38.86512389 163.48833629 -38.87324524 161.99601746 C-38.89112613 157.96076102 -38.89001772 153.92572265 -38.88430285 149.89043856 C-38.88120322 146.51340286 -38.88731214 143.13640858 -38.8933416 139.75937879 C-38.90736897 131.78774185 -38.90584085 123.81621212 -38.8944397 115.84457397 C-38.88296384 107.63975285 -38.89702916 99.43525881 -38.92383617 91.23048079 C-38.94603917 84.1686272 -38.95262011 77.10687594 -38.94675976 70.04498994 C-38.94339951 65.83497366 -38.9457427 61.62516691 -38.96301079 57.41518021 C-38.97855116 53.45381203 -38.97444659 49.49292579 -38.95570564 45.53157616 C-38.95203907 44.0844691 -38.95507142 42.63732577 -38.96559143 41.1902523 C-39.0512894 28.41913624 -36.85642229 19.86257463 -27.95230103 10.53305054 C-19.58888519 2.96552918 -11.10503599 -0.03921675 0 0 Z " fill="#131313" transform="translate(163.44839477539063,129.73257446289063)"/>
<path d="M0 0 C1.67967168 -0.00678409 3.35933592 -0.01569165 5.03898621 -0.02655029 C9.58048928 -0.0492581 14.12142158 -0.04054227 18.66293406 -0.02465487 C23.42818223 -0.01194945 28.19338323 -0.02374903 32.95863342 -0.03158569 C40.96046676 -0.04066966 48.96206898 -0.02872822 56.96386719 -0.00488281 C66.19748977 0.02231676 75.43056008 0.01351778 84.66416925 -0.01401484 C92.60928743 -0.0367518 100.55423995 -0.03988334 108.49938017 -0.02682149 C113.23700825 -0.01905095 117.97437731 -0.01791892 122.71198845 -0.03450394 C127.16839195 -0.04901606 131.62408812 -0.03880483 136.08041573 -0.01003265 C137.70973159 -0.00345726 139.33910764 -0.00525837 140.96839905 -0.01634598 C151.0485287 -0.07858476 159.72482753 0.39860898 167.4796133 7.63663292 C173.35218573 13.76791729 175.70887423 19.61571062 175.61157227 28.01611328 C175.58643555 28.86367187 175.56129883 29.71123047 175.53540039 30.58447266 C175.52186523 31.45910156 175.50833008 32.33373047 175.49438477 33.23486328 C175.45934148 35.37250352 175.4055458 37.50982249 175.34790039 39.64697266 C174.76020717 39.64843922 174.17251394 39.64990578 173.56701183 39.65141678 C159.22596193 39.68856905 144.88512482 39.74769463 130.54426861 39.8308754 C123.60893587 39.87057966 116.67371518 39.90301561 109.73828125 39.91796875 C103.04022918 39.93243096 96.34257459 39.96764017 89.64466286 40.01528168 C87.09435872 40.03007359 84.54400496 40.03801241 81.99365807 40.03885651 C78.41043801 40.04123437 74.82817182 40.06838243 71.24511719 40.10107422 C69.67741074 40.09352867 69.67741074 40.09352867 68.07803345 40.08583069 C56.51753556 40.24810369 46.38779763 44.32611081 37.72290039 51.95947266 C36.93915039 52.84634766 36.15540039 53.73322266 35.34790039 54.64697266 C34.86579102 55.18708984 34.38368164 55.72720703 33.88696289 56.28369141 C24.32774982 67.85664733 23.72636399 79.54274643 24.21479416 93.84914017 C24.31103327 96.88017849 24.36194929 99.90894782 24.39956665 102.94125366 C24.50792516 111.55206703 24.64389626 120.15975976 24.93383789 128.76660156 C26.2301875 168.88836332 26.2301875 168.88836332 16.74771118 179.62240601 C11.87900179 184.14099675 7.28972343 187.70188107 0.92358398 189.74707031 C-1.65209961 189.64697266 -1.65209961 189.64697266 -3.50878906 188.70629883 C-5.28879865 185.50015302 -5.01871088 182.26528483 -4.94506836 178.69775391 C-4.94082352 177.92513718 -4.93657867 177.15252045 -4.9322052 176.35649109 C-4.91542144 173.89046273 -4.87777108 171.4252537 -4.83959961 168.95947266 C-4.82455232 167.28695842 -4.81086399 165.61443137 -4.79858398 163.94189453 C-4.76551907 159.84327188 -4.71373989 155.74526115 -4.65209961 151.64697266 C-7.64759064 151.6652832 -7.64759064 151.6652832 -10.64308167 151.68359375 C-18.15223598 151.54671421 -24.32139886 148.39700811 -29.53517151 143.10969543 C-38.94071795 132.16777754 -37.36816459 118.14426354 -37.28100586 104.60400391 C-37.28183574 102.26616811 -37.28429963 99.92833238 -37.28831482 97.59049988 C-37.29116229 92.70948564 -37.27657056 87.82893296 -37.24902344 82.94799805 C-37.21488633 76.70722492 -37.22098824 70.46727333 -37.23968601 64.22646046 C-37.25027609 59.40587063 -37.24130074 54.5854705 -37.22630119 49.7648983 C-37.22113755 47.46411389 -37.22157898 45.16330952 -37.22784615 42.86252785 C-37.23332477 39.64416788 -37.21283932 36.42696783 -37.18554688 33.20874023 C-37.19207275 32.26877197 -37.19859863 31.32880371 -37.20532227 30.36035156 C-37.09115832 22.4028037 -34.79399224 15.45010996 -29.46459961 9.39697266 C-28.95541992 8.79369141 -28.44624023 8.19041016 -27.92163086 7.56884766 C-19.16667309 0.15501078 -10.98966783 -0.07468495 0 0 Z " fill="#141414" transform="translate(92.652099609375,82.35302734375)"/>
<path d="M0 0 C0.33 0.66 0.66 1.32 1 2 C0.67 2.66 0.34 3.32 0 4 C0.66 4.33 1.32 4.66 2 5 C1.34 5 0.68 5 0 5 C0 5.66 0 6.32 0 7 C1.32 7.66 2.64 8.32 4 9 C3.46890625 9.45890625 2.9378125 9.9178125 2.390625 10.390625 C-1.18324699 13.49493717 -4.71854059 16.58181312 -8 20 C-8 17.69 -8 15.38 -8 13 C-8.78375 13.515625 -9.5675 14.03125 -10.375 14.5625 C-11.24125 15.036875 -12.1075 15.51125 -13 16 C-13.66 15.67 -14.32 15.34 -15 15 C-10.64547089 8.87644344 -6.27864722 4.15858452 0 0 Z " fill="#F3F3F3" transform="translate(137,128)"/>
<path d="M0 0 C0.33 0 0.66 0 1 0 C1.16234938 11.48305034 1.28665011 22.96582669 1.3626852 34.44979191 C1.39918286 39.78261478 1.44867007 45.11465122 1.52807617 50.44702148 C1.60425937 55.5953129 1.64601637 60.74284901 1.6641407 65.89166069 C1.67705272 67.85371222 1.70226806 69.81572342 1.7401104 71.77745247 C1.79110394 74.53100273 1.79791681 77.28145223 1.79467773 80.03540039 C1.81984467 80.84244919 1.8450116 81.64949799 1.87094116 82.48100281 C1.80958438 87.31730453 0.90107546 89.58778054 -2.54966736 93.06028748 C-3.68099967 94.06181353 -4.82528685 95.04972833 -6 96 C-6.66 95.01 -7.32 94.02 -8 93 C-6 91 -6 91 -3 90 C-0.57615856 85.7663709 -0.69435352 81.3769842 -0.68115234 76.62963867 C-0.67110672 75.79985504 -0.6610611 74.97007141 -0.65071106 74.11514282 C-0.61991362 71.38275826 -0.60285351 68.65047154 -0.5859375 65.91796875 C-0.56722309 64.01938538 -0.54764947 62.1208103 -0.5272522 60.22224426 C-0.47595392 55.23284802 -0.43631581 50.24342482 -0.39910889 45.25390625 C-0.35905484 40.15943749 -0.30796887 35.06508066 -0.2578125 29.97070312 C-0.16108047 19.9805474 -0.07666691 9.99032845 0 0 Z " fill="#212121" transform="translate(115,163)"/>
<path d="M0 0 C0.33 0.66 0.66 1.32 1 2 C0.67 2.66 0.34 3.32 0 4 C0.66 4.33 1.32 4.66 2 5 C1.34 5 0.68 5 0 5 C0 5.66 0 6.32 0 7 C1.32 7.66 2.64 8.32 4 9 C2.02 10.32 0.04 11.64 -2 13 C-2.66 11.35 -3.32 9.7 -4 8 C-5.65 8.33 -7.3 8.66 -9 9 C-7.83709195 5.51127585 -6.86032391 4.90023136 -3.9375 2.8125 C-3.20402344 2.28269531 -2.47054687 1.75289062 -1.71484375 1.20703125 C-1.14894531 0.80871094 -0.58304688 0.41039062 0 0 Z " fill="#E9E9E9" transform="translate(137,128)"/>
<path d="M0 0 C0.99 0.33 1.98 0.66 3 1 C-0.00168774 4.7163753 -3.1059584 8.26217771 -6.625 11.5 C-7.17414063 12.0053125 -7.72328125 12.510625 -8.2890625 13.03125 C-10 14 -10 14 -12.2109375 13.65625 C-13.09652344 13.33140625 -13.09652344 13.33140625 -14 13 C-13.67 12.01 -13.34 11.02 -13 10 C-12.34 10.33 -11.68 10.66 -11 11 C-11 10.34 -11 9.68 -11 9 C-10.1028125 8.87625 -10.1028125 8.87625 -9.1875 8.75 C-6.38926857 7.79060637 -5.69589407 6.35950479 -4 4 C-3.01 3.67 -2.02 3.34 -1 3 C-0.67 2.01 -0.34 1.02 0 0 Z " fill="#1F1F1F" transform="translate(105,258)"/>
<path d="M0 0 C0.33 0 0.66 0 1 0 C1.33 9.9 1.66 19.8 2 30 C2.66 30.33 3.32 30.66 4 31 C3.67 32.32 3.34 33.64 3 35 C3.99 35.33 4.98 35.66 6 36 C1.125 35.125 1.125 35.125 0 34 C-0.08847743 31.47905924 -0.11527301 28.98569107 -0.09765625 26.46484375 C-0.0962413 25.71159317 -0.09482635 24.95834259 -0.09336853 24.18226624 C-0.08775376 21.7673044 -0.07519883 19.35243399 -0.0625 16.9375 C-0.0574869 15.30403779 -0.05292366 13.67057414 -0.04882812 12.03710938 C-0.03777954 8.02470415 -0.02050506 4.01236759 0 0 Z " fill="#0B0B0B" transform="translate(88,235)"/>
<path d="M0 0 C0.66 0 1.32 0 2 0 C2.77734375 1.671875 2.77734375 1.671875 3 4 C1.12890625 6.578125 1.12890625 6.578125 -1.4375 9.25 C-2.70400391 10.58804687 -2.70400391 10.58804687 -3.99609375 11.953125 C-4.65738281 12.62859375 -5.31867188 13.3040625 -6 14 C-6.99 13.67 -7.98 13.34 -9 13 C-8.67 12.01 -8.34 11.02 -8 10 C-6.66666667 9.33333333 -5.33333333 8.66666667 -4 8 C-3.67 7.01 -3.34 6.02 -3 5 C-2.01 4.67 -1.02 4.34 0 4 C0 2.68 0 1.36 0 0 Z " fill="#1B1B1B" transform="translate(410,317)"/>
<path d="M0 0 C1.65 0 3.3 0 5 0 C5 0.66 5 1.32 5 2 C6.32 2 7.64 2 9 2 C8.01 3.485 8.01 3.485 7 5 C3.875 5.1875 3.875 5.1875 1 5 C0.67 3.35 0.34 1.7 0 0 Z " fill="#1A1A1A" transform="translate(364,386)"/>
<path d="M0 0 C0.66 0.33 1.32 0.66 2 1 C0.4169423 5.2742558 -2.50568404 7.26531794 -6 10 C-6.33 9.01 -6.66 8.02 -7 7 C-5 5 -5 5 -2 4 C-0.79117904 1.99983534 -0.79117904 1.99983534 0 0 Z " fill="#1B1B1B" transform="translate(114,249)"/>
<path d="M0 0 C1.32 0.66 2.64 1.32 4 2 C4 3.65 4 5.3 4 7 C1.36 6.34 -1.28 5.68 -4 5 C-3.34 4.54625 -2.68 4.0925 -2 3.625 C-1.34 3.08875 -0.68 2.5525 0 2 C0 1.34 0 0.68 0 0 Z M4 4 C6 5 6 5 6 5 Z " fill="#1F1F1F" transform="translate(74,226)"/>
<path d="M0 0 C0.66 0.66 1.32 1.32 2 2 C2.66 2 3.32 2 4 2 C4 2.66 4 3.32 4 4 C4.66 4.33 5.32 4.66 6 5 C4.35 5.66 2.7 6.32 1 7 C-0.32 5.68 -1.64 4.36 -3 3 C-2.01 2.01 -1.02 1.02 0 0 Z " fill="#1A1A1A" transform="translate(139,120)"/>
<path d="M0 0 C0.66 0 1.32 0 2 0 C5.10096154 5.45769231 5.10096154 5.45769231 4.58984375 8.203125 C4.39519531 8.79609375 4.20054687 9.3890625 4 10 C3.13342884 8.90554162 2.28207276 7.79902219 1.4375 6.6875 C0.96183594 6.07261719 0.48617187 5.45773437 -0.00390625 4.82421875 C-0.33261719 4.22222656 -0.66132813 3.62023437 -1 3 C-0.67 2.01 -0.34 1.02 0 0 Z " fill="#1F1F1F" transform="translate(129,316)"/>
<path d="M0 0 C0 0.99 0 1.98 0 3 C-0.66 3.66 -1.32 4.32 -2 5 C-2.66 5 -3.32 5 -4 5 C-5.63676257 6.9600281 -5.63676257 6.9600281 -7 9 C-7 8.34 -7 7.68 -7 7 C-7.99 7.33 -8.98 7.66 -10 8 C-10 7.34 -10 6.68 -10 6 C-9.36191406 5.65066406 -8.72382813 5.30132812 -8.06640625 4.94140625 C-7.24011719 4.48636719 -6.41382813 4.03132812 -5.5625 3.5625 C-4.73878906 3.11003906 -3.91507813 2.65757812 -3.06640625 2.19140625 C-1.07691202 1.16337603 -1.07691202 1.16337603 0 0 Z " fill="#1A1A1A" transform="translate(141,139)"/>
<path d="M0 0 C0.66 0 1.32 0 2 0 C2.8125 1.6875 2.8125 1.6875 3 4 C0.5625 6.75 0.5625 6.75 -2 9 C-2.33 7.68 -2.66 6.36 -3 5 C-2.01 4.67 -1.02 4.34 0 4 C0 2.68 0 1.36 0 0 Z " fill="#222222" transform="translate(410,317)"/>
<path d="M0 0 C0.99 0.33 1.98 0.66 3 1 C2.34 2.98 1.68 4.96 1 7 C0.01 5.68 -0.98 4.36 -2 3 C-1.34 2.01 -0.68 1.02 0 0 Z " fill="#212121" transform="translate(61,216)"/>
<path d="M0 0 C0.99 0.33 1.98 0.66 3 1 C2.34 2.32 1.68 3.64 1 5 C-0.32 4.67 -1.64 4.34 -3 4 C-2.67 3.01 -2.34 2.02 -2 1 C-1.34 1.33 -0.68 1.66 0 2 C0 1.34 0 0.68 0 0 Z " fill="#2E2E2E" transform="translate(94,267)"/>
<path d="M0 0 C2.475 0.495 2.475 0.495 5 1 C3.69593116 3.01920337 2.36176581 5.01924973 1 7 C0.67 7 0.34 7 0 7 C0 4.69 0 2.38 0 0 Z " fill="#E8E8E8" transform="translate(129,141)"/>
</svg>
